<?xml version="1.0" encoding="iso-8859-1"?>
<!-- Uploaded to: SVG Repo, www.svgrepo.com, Generator: SVG Repo Mixer Tools -->
<svg version="1.1" id="Layer_1" xmlns="http://www.w3.org/2000/svg" xmlns:xlink="http://www.w3.org/1999/xlink" 
	 viewBox="0 0 464 464" xml:space="preserve">
<polygon style="fill:#CC9966;" points="316.8,448 152.8,448 172,424 232,424 232,408 176,408 176,368 288,368 288,408 264,408 
	264,424 292.8,424 "/>
<g>
	<path style="fill:#42210B;" d="M456,116.8v222.4c0,16-12.8,28.8-28.8,28.8H304v44.8l35.2,35.2H376v16h-40H136H32v-16h100l28-34.4
		V368H36.8C20.8,368,8,355.2,8,339.2V116.8C8,100.8,20.8,88,36.8,88H112V8c0-4.8,4-8,8-8h224c4,0,8,3.2,8,8v80h8V8c0-4.8,4-8,8-8h32
		c4,0,8,3.2,8,8v80h19.2C443.2,88,456,100.8,456,116.8z M440,339.2V304H232H24v35.2c0,7.2,5.6,12.8,12.8,12.8H168h64h64h131.2
		C434.4,352,440,346.4,440,339.2z M440,288V116.8c0-7.2-5.6-12.8-12.8-12.8H408v8h16c4,0,8,4,8,8v152c0,4-4,8-8,8h-80H120H40
		c-4.8,0-8-4-8-8V120c0-4,3.2-8,8-8h72v-8H36.8c-7.2,0-12.8,5.6-12.8,12.8V288H440z M416,264V128h-8v68c0,2.4-1.6,4.8-3.2,6.4
		l-16,12c-1.6,0.8-3.2,1.6-4.8,1.6s-3.2-0.8-4.8-1.6l-16-12c-2.4-1.6-3.2-4-3.2-6.4v-68h-8v136H416z M392,192V48h-16v144l8,5.6
		L392,192z M392,32V16h-16v16H392z M360,112v-8h-8v8H360z M336,264V16H128v248H336z M152.8,448h164l-24-24H264v-16h24v-40H176v40h56
		v16h-60L152.8,448z M112,264V128H48v136H112z"/>
	<rect x="400" y="448" style="fill:#42210B;" width="48" height="16"/>
</g>
<path style="fill:#E4C6A1;" d="M440,116.8V288H24V116.8c0-7.2,5.6-12.8,12.8-12.8H112v8H40c-4.8,0-8,4-8,8v152c0,4,3.2,8,8,8h80h224
	h80c4,0,8-4,8-8V120c0-4-4-8-8-8h-16v-8h19.2C434.4,104,440,109.6,440,116.8z"/>
<path style="fill:#FFF8EF;" d="M416,128v136h-64V128h8v68c0,2.4,1.6,4.8,3.2,6.4l16,12c1.6,0.8,3.2,1.6,4.8,1.6s3.2-0.8,4.8-1.6
	l16-12c2.4-1.6,3.2-4,3.2-6.4v-68H416z"/>
<polygon style="fill:#FF6600;" points="392,48 392,192 384,198.4 376,192 376,48 "/>
<rect x="376" y="16" style="fill:#2FB4C2;" width="16" height="16"/>
<path style="fill:#FFF8EF;" d="M336,16v248H128V16H336z M320,88V40c0-4.8-4-8-8-8H152c-4,0-8,3.2-8,8v48c0,4,4,8,8,8h160
	C316,96,320,92,320,88z M312,216v-16H152v16H312z M312,176v-16H208v16H312z M312,136v-16h-32v16H312z M256,136v-16H152v16H256z
	 M248,240c0-8.8-7.2-16-16-16c-8.8,0-16,7.2-16,16s7.2,16,16,16C240.8,256,248,248.8,248,240z M184,176v-16h-32v16H184z"/>
<g>
	<path style="fill:#42210B;" d="M320,40v48c0,4-4,8-8,8H152c-4,0-8-4-8-8V40c0-4.8,4-8,8-8h160C316,32,320,35.2,320,40z M304,80V48
		H160v32H304z"/>
	<rect x="152" y="200" style="fill:#42210B;" width="160" height="16"/>
	<rect x="208" y="160" style="fill:#42210B;" width="104" height="16"/>
	<rect x="280" y="120" style="fill:#42210B;" width="32" height="16"/>
</g>
<rect x="160" y="48" style="fill:#2FB4C2;" width="144" height="32"/>
<g>
	<rect x="152" y="120" style="fill:#42210B;" width="104" height="16"/>
	<path style="fill:#42210B;" d="M232,304c13.6,0,24,10.4,24,24s-10.4,24-24,24c-12.8,0-24-10.4-24-24S219.2,304,232,304z M240,328
		c0-4-4-8-8-8s-8,4-8,8s4,8,8,8S240,332,240,328z"/>
	<circle style="fill:#42210B;" cx="232" cy="240" r="16"/>
</g>
<g>
	<path style="fill:#CC9966;" d="M24,304h208c-12.8,0-24,10.4-24,24s11.2,24,24,24h-64H36.8c-7.2,0-12.8-5.6-12.8-12.8V304z"/>
	<path style="fill:#CC9966;" d="M232,304c13.6,0,24,10.4,24,24c0,12.8-10.4,24-24,24h64h131.2c7.2,0,12.8-5.6,12.8-12.8V304H232z"/>
</g>
<rect x="152" y="160" style="fill:#42210B;" width="32" height="16"/>
<rect x="48" y="128" style="fill:#FFF8EF;" width="64" height="136"/>
<g>
	<path style="fill:#D9CDC1;" d="M336,16l-171.2,7.2C148.8,24,136,36.8,136,52.8v174.4c0,16,12.8,29.6,28.8,29.6L336,264H128V16H336z
		"/>
	<path style="fill:#D9CDC1;" d="M112,128l-42.4,6.4c-8,0.8-13.6,7.2-13.6,15.2v93.6c0,8,5.6,14.4,13.6,15.2L112,264H48V128H112z"/>
	<polygon style="fill:#D9CDC1;" points="360,128 352,128 360,128.8 	"/>
	<path style="fill:#D9CDC1;" d="M408,128v8v60v39.2c0,12-8.8,21.6-20,23.2l-36,5.6h64V128H408z"/>
</g>
<g>
	<path style="fill:#B37D4D;" d="M36.8,352H168h64c-7.2,0-13.6-3.2-17.6-8H40c-4,0-8-3.2-8-8v-32h-8v35.2C24,346.4,29.6,352,36.8,352
		z"/>
	<path style="fill:#B37D4D;" d="M432,304v32c0,4-3.2,8-8,8H249.6c-4.8,4.8-10.4,8-17.6,8h64h131.2c7.2,0,12.8-5.6,12.8-12.8V304H432
		z"/>
	<path style="fill:#B37D4D;" d="M288,368l-88,6.4c-9.6,0.8-17.6,8-20,16.8l-4,16.8v-40H288z"/>
</g>
</svg>